<svg xmlns="http://www.w3.org/2000/svg" viewBox="0 0 616.74 552.92"><defs><style>.cls-1{fill:#fff;}.cls-2{fill:#d8af03;}.cls-3{fill:#e8ca4d;}.cls-4{fill:#f5c185;}.cls-5{fill:#7f2f24;}.cls-6{fill:#e2a971;}.cls-7{fill:#f7941e;}.cls-8{fill:#8fb7b7;}.cls-9{fill:#353035;}.cls-10{fill:#443c44;}.cls-11{fill:#2a2a91;}.cls-12{fill:#262262;}.cls-13{fill:#f15a29;}</style></defs><title>albos-bombero0</title><g id="Capa_2" data-name="Capa 2"><g id="Capa_1-2" data-name="Capa 1"><g id="Icono_de_carro" data-name="Icono de carro"><path class="cls-1" d="M539.42,160.36H442.83a4.39,4.39,0,0,1-4.33-3.67L429.72,104A4.39,4.39,0,0,1,434,98.89H548.2a4.39,4.39,0,0,1,4.33,5.11l-8.78,52.69A4.39,4.39,0,0,1,539.42,160.36Zm-92.87-8.78H535.7L543,107.67H439.23Z"/><path class="cls-1" d="M434.05,107.67a4.39,4.39,0,0,1-3.93-2.43l-7.57-15.14H403.31a4.39,4.39,0,0,1,0-8.78h22a4.39,4.39,0,0,1,3.93,2.43L438,101.32a4.39,4.39,0,0,1-3.92,6.36Z"/><path class="cls-1" d="M539.42,177.92H442.83a4.39,4.39,0,0,1-4.39-4.39V156a4.39,4.39,0,0,1,8.78,0v13.17h92.2a4.39,4.39,0,1,1,0,8.78Z"/><circle class="cls-1" cx="456" cy="191.09" r="8.78"/><circle class="cls-1" cx="526.25" cy="191.09" r="8.78"/></g><path class="cls-2" d="M616.74,34.32A18.76,18.76,0,0,0,598,15.57H488.5V68.71h92a18.75,18.75,0,0,1,18.75,18.76V190.62a18.76,18.76,0,0,1-18.75,18.76h-92V536.22H616.74Z"/><path class="cls-3" d="M393.18,209.37a18.76,18.76,0,0,1-18.76-18.76V87.46a18.76,18.76,0,0,1,18.76-18.76H488.5V15.57H375.72A18.76,18.76,0,0,0,357,34.32V299.83H342.61v19.94H325.13v70.64a35.43,35.43,0,1,1-70.87,0V185.9a4.36,4.36,0,0,0,1.74-3.52l-.06-3.2,17.39-.31a4.46,4.46,0,0,0,4.37-4.53l-.63-35.79,0-19.78-2.28-1.43,1.41-2.07a2.3,2.3,0,0,0-.6-3.19l-2-1.34,5.83-9.56L302.94,88l-4.37-7.76L274.13,94a4.46,4.46,0,0,0-1.62,1.57l-6.19,10.17-1.25-.85a2.3,2.3,0,0,0-3.19.6l-1.8,2.63-2.61-1.64L237,117.34l-6,13.88,5.52,8.07.63,35.78a4.39,4.39,0,0,0,3.72,4.23l.06,3.36a4.42,4.42,0,0,0,1.45,3.18V390.42a47.31,47.31,0,1,0,94.63,0V331.66h5.61V351.6H357V536.22H488.5V209.37ZM251.09,172.49l-.46-26.18a2.34,2.34,0,0,1,2.29-2.38l15.5-.27A2.33,2.33,0,0,1,270.8,146l.46,26.18a2.33,2.33,0,0,1-2.29,2.38l-15.5.27A2.33,2.33,0,0,1,251.09,172.49Z"/><path class="cls-4" d="M132.75,148c3.05-.75,6.27-1.82,9.52-2.6a23.29,23.29,0,0,0-4-5.64c-2.89-3.29-6.05-6.3-8.62-9.87-1.36-1.89-.31-4.74,1.53-5.85,2.14-1.28,4.5-.33,5.85,1.53,6.45,8.93,13,17.87,18.25,27.61,3.53,6.59,6.29,22.56,13.75,25.79,4.14,1.79,11.46,1.08,16.06,1.83,7.93,1.29,16,3.74,24.17,5.93l.63.64a92.41,92.41,0,0,1,27.3,5.22q1.31-.8,2.54-1.73c.89-.08,1.78-.17,2.66-.3l.07.16a12.53,12.53,0,0,0,.58,1.5l.27.59c.09.27.19.54.28.82.32,1,.51,2.1.77,3.16l0,.17c0,.35.06.69.07,1a30.77,30.77,0,0,1,0,3.14c0,.4-.07.8-.1,1.2-.22,1-.41,2.08-.68,3.12-.19.75-.41,1.49-.63,2.23a36.33,36.33,0,0,1-5-.5,50.82,50.82,0,0,0-15.26-.06,190.12,190.12,0,0,1-39.53.39c-5.87-.55-12.29-2.75-18.54-5.92a27.15,27.15,0,0,1-6.53-1.17c-5.32-1.82-9.13-5.52-12.88-9.52a125.89,125.89,0,0,1-9-10.53,41.4,41.4,0,0,1-4.83-7.53l-.61-.74c-5.95-7.39-10.25-16-14.16-24.51C121.32,149.49,126.78,149.42,132.75,148Z"/><path class="cls-5" d="M51.94,33.46a31.76,31.76,0,0,1,.13-8.52C53.3,16.87,58.51,7.11,67.86,7.14c2.32,0,4.62.49,6.94.45,3.66-.06,6-2.58,9.44-3.33a24.32,24.32,0,0,1,10.12.12c6.3,1.32,13,4.84,16.23,10.67a9.27,9.27,0,0,1,4.6,3.66,4.3,4.3,0,0,1,1.75,1.57c4.15,6.37,3.52,14.68,2,21.77a65.5,65.5,0,0,1-6.11,16.6c-.6,4.91-2.29,9.65-6.21,12.25-3.67,2.44-9.7,1.23-14,1-9.25-.39-18.13-3.65-27.4-1a8,8,0,0,1-8.67-3.62,12.78,12.78,0,0,1-1.75-4.51,30.23,30.23,0,0,1-2.65-8.4A50.43,50.43,0,0,1,51.94,33.46Z"/><path class="cls-4" d="M101.95,106.15c0-.35-.07-.7-.11-1.05a60.89,60.89,0,0,1-3-9.86c-.07-.32-.13-.65-.19-1a73.07,73.07,0,0,1-1.11-11.42c-.73-.41-1.94-.14-2,.86a13.85,13.85,0,0,0,0,1.64,7.13,7.13,0,0,0-5.88.09,6.58,6.58,0,0,0-5.34,1.65,7,7,0,0,0-2.25.52h-.11a6.14,6.14,0,0,0-4.09-2.21,7.21,7.21,0,0,0-8.1-1.25,34.2,34.2,0,0,1-.35,3.75c-.25,1.7-.56,3.45-1,5.19h0a30.1,30.1,0,0,1-4.48,10.66,18.89,18.89,0,0,0-.41,2.67,1.15,1.15,0,0,0,0,.16c-2,2-2.61,5.18.07,7.63a11.74,11.74,0,0,0,6.9,2.77,6.37,6.37,0,0,0,5.06,3.18c8.7,1,20.62,1.55,27.26-5.25A5.68,5.68,0,0,0,101.95,106.15Z"/><path class="cls-6" d="M98.83,95.24c-4.22.92-9.71,2.48-15.52,2.13-6.67-.4-11.51-2.75-14.87-4.29.41-1.74.72-3.49,1-5.19a34.06,34.06,0,0,0,.35-3.75,7.21,7.21,0,0,1,8.1,1.25,6.14,6.14,0,0,1,4.09,2.21h.11a7,7,0,0,1,2.25-.52,6.58,6.58,0,0,1,5.34-1.65,7.13,7.13,0,0,1,5.88-.09,13.85,13.85,0,0,1,0-1.64c.06-1,1.26-1.26,2-.86a73.07,73.07,0,0,0,1.11,11.42C98.7,94.59,98.76,94.91,98.83,95.24Z"/><path class="cls-4" d="M103.69,75.2a58.53,58.53,0,0,0,3.24-12.08c.16-1.23.28-2.46.34-3.67.3-5.81-.46-11.18,1.4-16.88,0-3.14-.05-6.24-.16-9.28-.22-6.23-2.42-9.88-5.73-11.86-3.59-2.15-8.49-2.33-13.54-1.71-7.24.88-15.09-2-22,1.09-7.36,3.31-9.28,10.49-9,18a86.65,86.65,0,0,0,1.19,11c.67,4-.14,7.84.12,11.78.21,3.14,5.51,20.18,8.94,24.56,4.61,5.88,12.24,6.39,19.17,6.19,6.29-.18,10.55-5,13.13-10.27C101.76,80,102.77,77.67,103.69,75.2Z"/><path class="cls-4" d="M62.69,60.84a1.39,1.39,0,0,0,.31-.78c0-.25,0-.51,0-.76a1.48,1.48,0,0,0,.18-1.37c-.08-.21-.14-.42-.22-.64a14.49,14.49,0,0,0-1.64-5.69,1.33,1.33,0,0,0,1.22-2c-1.06-1.79-3.12-4.85-5.64-3.59s-2,4.89-1.71,7c.52,4.06,1.62,10.94,7.1,10.34C63.76,63.24,63.68,61.47,62.69,60.84Z"/><path class="cls-4" d="M109.73,47.41a2.23,2.23,0,0,0-1.5-.81c-1.71-.12-2.66,1.9-3.2,3.64a1.55,1.55,0,0,0,.82,2c-.61,2.41-1,5-1.29,6.11a1.76,1.76,0,0,0,.78,2,1.68,1.68,0,0,0,.2.23q-.47.81-1,1.59c-.94,1.48.85,3.43,1.93,2.12A21.69,21.69,0,0,0,111,55c.05-.2.12-.39.17-.59C111.7,52.27,111.85,48.34,109.73,47.41Z"/><path class="cls-5" d="M51.53,33.19a1.59,1.59,0,0,0,2.3.82,1.34,1.34,0,0,0,1.06,0,31.38,31.38,0,0,0-.07,6.27,1.26,1.26,0,0,0,.27.69c.24,1.38,2.38,1.93,2.71.34.78-3.8,1.84-8,4.67-10.71,4.92-4.7,11.33-7.15,16.62-11.46,2.72,2.82,5.4,5.69,9,7.49a20,20,0,0,0,4.13,1.52q1,.5,1.94,1c4.57,2.16,11.61,3,13.37,8.45a8.61,8.61,0,0,1-1.34,7.55c-.41.59-4.08,5.44-.09,4,5.27-2,6.62-8.4,6.72-14.35,10.13-2.52,9.65-15,4.5-22.31a15.49,15.49,0,0,0-6-5.07,15.3,15.3,0,0,0-6.07-5.24C99.1-.75,91.94-.36,85.55,1.3a19,19,0,0,0-2.38.82C78.34,1.6,73.63.29,68.74,1A21.17,21.17,0,0,0,56.87,6.86a19.12,19.12,0,0,0-5.26,10.6A25.76,25.76,0,0,0,51.53,33.19ZM87.23,3.82a31.09,31.09,0,0,1,15.31.3,10.46,10.46,0,0,1,2.84,1.3c-1.16-.22-2.34-.4-3.55-.53-3.79-.43-7.7-1.08-11.5-1.26A16.77,16.77,0,0,0,87.23,3.82Z"/><path class="cls-4" d="M47.54,119.41c-1-4.31-2.59-8.74-7.5-9.63-16.94-3.08-21.55,26.82-25,37.15-3,8.91-5.72,18.15-6.42,27.63-.3,4-.21,8-.5,11.92C7,201.68,1.21,216.51.31,232.09a190.13,190.13,0,0,0,1.84,39.49,50.82,50.82,0,0,1,.5,15.26C2,292,1.84,297.33,6.31,300.95c.23.19.47.36.72.53a19,19,0,0,0,3.4-.52,17.58,17.58,0,0,0,9.83-6.61c-5.81-20.77,5-41.21,6.62-62,.66-8.68.71-17.38,1.55-26,0-.05,0-.11,0-.16s0-.27,0-.4a40,40,0,0,1,.45-4.62l.13-.2c3.23-5.65,6.9-28.5,9.26-34.58,1.68-4.33,3.18-9.3,3-14.1a11.08,11.08,0,0,1,1.89-3.49,5.25,5.25,0,0,0,.59.21,5.81,5.81,0,0,0,7-3.92C53.84,136.64,49.4,127.52,47.54,119.41Z"/><path class="cls-7" d="M146.58,129.39a25.82,25.82,0,0,0-2.26-4.73c-4.45-7.39-10.72-14.09-18.48-18-2.2-1.12-23.7-7.22-24.68-4.56a20.75,20.75,0,0,1-4.26,7,18.25,18.25,0,0,1-13.45,5.6c-8.81-.09-15.7-5.73-19.93-12.91-1.69-2.87-24.93,3.73-28.08,5.13-14.11,6.27-22.88,22.07-27,36.29-.85,2.9,27.19,27.82,28.28,28.13l-.12.29c.76,13.06,4.54,36.76,3.65,49.81-.69,10.21-2.46,20.31-3.11,30.53-.61,9.5,14,5,3.91,7.1-6,1.25.88.37,1.32.54a134.54,134.54,0,0,0,62.54,9.26c7.87-.72,16.14-2.37,22.21-7.6.35-.3.69-.61,1-.94,4.06-4,2.25-1.92,2.23-6.1,0-5.46.82-17.24-.07-23.29-2.25-15.3-2.48-30.81-3.33-46.23q-.5-9-.67-18.07c2.77-5.69,8.6-9.9,13-14.22C146.3,145.59,149.61,138,146.58,129.39Z"/><path class="cls-4" d="M23.41,313a2.77,2.77,0,0,0-1-3c1.47-3.26,2.21-6.63.83-10a2.45,2.45,0,0,0,.37-1.35A19.52,19.52,0,0,0,20.89,288a8.37,8.37,0,0,0-3.09-3c-1.62-.86-3.23-.33-4.85-.83a2.4,2.4,0,0,0-1.52,0c-2.21-2-6-2.36-7.77,1-2.58,4.8-2.59,11.19-2.15,16.52a17.34,17.34,0,0,0,3.1,8.58,12,12,0,0,0,5.5,6.14l.06.06a5.91,5.91,0,0,0,.59.48c3.2,3.46,9.81,2,14,1C27.93,317.27,26.6,312.37,23.41,313Zm-7.48-5.18a24.08,24.08,0,0,1-2.15-2.21c0-.07,0-.14,0-.21.08.42-.08-1.5-.07-2,0-.07,0-.13,0-.2a2.26,2.26,0,0,0,1.56-.06.52.52,0,0,0,.27-.17.81.81,0,0,0,.11.44,17.27,17.27,0,0,1,.9,2.29c.29,1,.51,2,.72,3A5,5,0,0,0,15.93,307.87Z"/><path class="cls-8" d="M119,479.1a13.5,13.5,0,0,0-5-.85c-2.54.06-6.62.23-8.85,1.73-3.41,2.29-1.65,5.9-1.24,9.29a18.36,18.36,0,0,0,.88,4.47c.7,1.78,2.18,3.2,4,3s5-1.31,6.1-.44c3.85,3,6.18-1.83,7.27-5.5.54-1.84,1.54-4.48,1.4-6.38C123.29,481.62,121.14,479.92,119,479.1Z"/><path class="cls-9" d="M122.9,516.81a10.21,10.21,0,0,0-.48-1.7c-1.69-4.4-3-9.18-5-13.38-1.07-2.34-2.95-3.72-4.85-3.67-.24-.48-.48-.94-.72-1.36l-.79.29a7.45,7.45,0,0,1-4.2.28l-.21-.06a137.47,137.47,0,0,0-4.15,19.21c-.86,5.62-2.59,12.44-1.56,18.15,1.62,9,8.86,18.83,15.91,18.32,6.61-.48,10.78-5.85,11.46-14.89,0-.36.05-.75.07-1.16C128.7,530.49,127.94,518,122.9,516.81Z"/><path class="cls-10" d="M124.54,494.65a10.68,10.68,0,0,0-1.82-5.65c-1.71-2.35-2.26.12-2.58,2.25-.38,2.5-1.05,4.88-2.62,6.41a5.81,5.81,0,0,1-9-.78,11.1,11.1,0,0,1-1.4-2.87c-.25-.67-.73-3.16-1.22-3.46-1.41-.87-2.51,4.07-2.33,5.49.06.45.11.91.15,1.37a93.09,93.09,0,0,1-.76,20.33c-.09.62-.2,1.25-.33,1.89,0,.42,0,.84-.07,1.27-.46,8.19,2,16.73,7.43,20.65s14.91,2.75,17.24-6.26C130,524.52,124.65,505.13,124.54,494.65Z"/><path class="cls-9" d="M115,523.44s-14.73-37.33-1.89-37.33S119.22,522.7,115,523.44Z"/><path class="cls-1" d="M120.36,499.94a.61.61,0,0,0,0-.66,9.87,9.87,0,0,0-4.59-3c-.46-.18-.92-.33-1.39-.49,1.76-.81,3.54-1.12,5.34-1.79.3-.11.35-.83,0-.9a20.62,20.62,0,0,0-11.59,1.1c-.29.12-.35.83,0,.9s2.09.42,3.95.92a7.77,7.77,0,0,0-3.64,3.71.54.54,0,0,0,.2.69,54.22,54.22,0,0,1,6.4,2.53l-.31.17a51.13,51.13,0,0,0-4.63,2.84.59.59,0,0,0-.07.73c1.12,1.85,3,2.49,4.71,3.49-1.12.88-2.25,1.75-3.36,2.64a.57.57,0,0,0,0,.81c1.34,1,3,1.89,4.33,3.11a31.43,31.43,0,0,0-2.46,2.54c-.28.34,0,.84.33.78,1.42-.3,2.86-.11,4.25-.68a.5.5,0,0,0,.22-.57.47.47,0,0,0,0-.43,8.65,8.65,0,0,0-1.2-1.65,10.66,10.66,0,0,0,2.18-3.18.61.61,0,0,0-.05-.57,28.64,28.64,0,0,0-2.74-2.91c1.33-1.06,2.64-2.15,3.92-3.34a.59.59,0,0,0,.07-.73,14.58,14.58,0,0,0-3.38-3A9.07,9.07,0,0,0,120.36,499.94Zm-3.09-6.26a9.65,9.65,0,0,0-1.84.58q-1.13.52-2.24,1.11-1.62-.5-3.26-.87A19.93,19.93,0,0,1,117.27,493.69Zm0,24.87a12.38,12.38,0,0,1-2.71.39c.56-.58,1.15-1.13,1.72-1.7A7.87,7.87,0,0,1,117.29,518.56Zm-1.09-7.34c.43.42,1.89,1.45,2,2.13.08.9-1.3,2.18-1.81,2.71l-.07.07a37.51,37.51,0,0,0-4-3l3.24-2.54A6.46,6.46,0,0,1,116.21,511.22ZM114.86,509c-1.29-.81-2.92-1.2-4-2.54,1.66-1.12,3.39-2.09,5.11-3a14.15,14.15,0,0,1,3.43,2.82c-1.25,1.14-2.54,2.21-3.84,3.25C115.34,509.31,115.1,509.14,114.86,509Zm4.62-9.12c-.14.76-1.9,1.63-2.37,1.91s-.76.44-1.15.64a41.68,41.68,0,0,0-6.67-2.77,8.67,8.67,0,0,1,4-3.33C116.4,497.22,119.73,498.51,119.48,499.87Z"/><path class="cls-8" d="M56.54,479.1a13.5,13.5,0,0,1,5-.85c2.54.06,6.62.23,8.85,1.73,3.41,2.29,1.65,5.9,1.24,9.29a18.39,18.39,0,0,1-.88,4.47c-.7,1.78-2.18,3.2-4,3s-5-1.31-6.1-.44c-3.85,3-6.18-1.83-7.27-5.5-.55-1.84-1.54-4.48-1.4-6.38C52.26,481.62,54.4,479.92,56.54,479.1Z"/><path class="cls-9" d="M53.22,516.81a10.15,10.15,0,0,1,.48-1.7c1.69-4.4,3-9.18,5-13.38,1.07-2.34,2.95-3.72,4.85-3.67.24-.48.48-.94.73-1.36L65,497a7.45,7.45,0,0,0,4.2.28l.21-.06a137.47,137.47,0,0,1,4.15,19.21c.86,5.62,2.59,12.44,1.56,18.15-1.62,9-8.86,18.83-15.91,18.32-6.61-.48-10.78-5.85-11.46-14.89,0-.36-.05-.75-.07-1.16C47.42,530.49,48.18,518,53.22,516.81Z"/><path class="cls-10" d="M51.58,494.65A10.68,10.68,0,0,1,53.4,489c1.71-2.35,2.26.12,2.58,2.25.38,2.5,1.05,4.88,2.62,6.41a5.81,5.81,0,0,0,9-.78A11.1,11.1,0,0,0,69,494c.25-.67.73-3.16,1.22-3.46,1.41-.87,2.51,4.07,2.33,5.49-.06.45-.11.91-.15,1.37a93.09,93.09,0,0,0,.76,20.33c.09.62.2,1.25.33,1.89,0,.42,0,.84.07,1.27.46,8.19-2,16.73-7.43,20.65s-14.91,2.75-17.24-6.26C46.12,524.52,51.47,505.13,51.58,494.65Z"/><path class="cls-9" d="M61.13,523.44S75.86,486.11,63,486.11,56.89,522.7,61.13,523.44Z"/><path class="cls-1" d="M59.29,502.95a14.58,14.58,0,0,0-3.38,3,.59.59,0,0,0,.07.73c1.27,1.19,2.59,2.28,3.92,3.34a28.64,28.64,0,0,0-2.74,2.91.61.61,0,0,0-.05.57,10.67,10.67,0,0,0,2.18,3.18,8.65,8.65,0,0,0-1.2,1.65.47.47,0,0,0,0,.43.5.5,0,0,0,.22.57c1.39.57,2.83.38,4.25.68.3.06.61-.44.33-.78a31.53,31.53,0,0,0-2.46-2.54c1.36-1.22,3-2.07,4.33-3.11a.57.57,0,0,0,0-.81c-1.12-.89-2.24-1.76-3.36-2.64,1.67-1,3.58-1.64,4.71-3.49a.59.59,0,0,0-.07-.73,51.22,51.22,0,0,0-4.63-2.84l-.31-.17a54.22,54.22,0,0,1,6.4-2.53.54.54,0,0,0,.2-.69A7.77,7.77,0,0,0,64,496c1.86-.49,3.46-.82,3.95-.92s.29-.78,0-.9a20.62,20.62,0,0,0-11.59-1.1c-.35.07-.3.79,0,.9,1.79.68,3.57,1,5.34,1.79-.46.16-.93.32-1.39.49a9.87,9.87,0,0,0-4.59,3,.61.61,0,0,0,0,.66A9.07,9.07,0,0,0,59.29,502.95Zm6.91-8.44q-1.64.37-3.26.87-1.11-.59-2.24-1.11a9.65,9.65,0,0,0-1.84-.58A19.93,19.93,0,0,1,66.19,494.51Zm-6.37,22.74c.57.57,1.16,1.12,1.72,1.7a12.38,12.38,0,0,1-2.71-.39A7.87,7.87,0,0,1,59.82,517.25Zm.81-6.63,3.24,2.54a37.51,37.51,0,0,0-4,3l-.07-.07c-.51-.53-1.89-1.81-1.81-2.71.06-.68,1.52-1.71,2-2.13A6.46,6.46,0,0,1,60.62,510.62Zm-.08-1.13c-1.3-1-2.58-2.1-3.84-3.25a14.15,14.15,0,0,1,3.43-2.82c1.72.94,3.45,1.91,5.11,3-1.08,1.34-2.71,1.73-4,2.54C61,509.14,60.78,509.31,60.55,509.49Zm2.3-13.18a8.67,8.67,0,0,1,4,3.33,41.68,41.68,0,0,0-6.67,2.77c-.39-.21-.77-.41-1.15-.64s-2.23-1.15-2.37-1.91C56.39,498.51,59.71,497.22,62.85,496.31Z"/><path class="cls-11" d="M37,225.11c1,10.56.8,21.32.58,32.05-.12,5.93-.26,11.85-.24,17.71v.06c.05,12.18-.64,24.44-.91,36.63-.57,25.88-1.12,52.15-1.28,77.8-.22,33.73-.3,67,.88,100.67,0,.11,0,.22,0,.33.21,5.92,3.82,9,6.72,7.72a8.36,8.36,0,0,0,2.8,2.1c1.77.79-.33-7.23,1.49-6.7,8.69,2.55,17.85,2.5,26.56,2,1.84-.11,5.08,4.69,5.65,3.45,2.85-6.23,3-11.58,3.14-22.95.24-20.88-1.45-148.29-1.18-167.79.7.09,7.33.58,6.63.68-1.45.22,2.49,158.76,2.79,169-.1.38-.35,14.23,0,17.56.3,2.75,3.35,2.7,5.7,3.54,4.74,1.73,9.69-5.38,12.72-5.18,6.13.39,17.94,3.93,24.76-.84.62-.43,2.13,3.41,1.73-1.51-.55-6.69.05-75.92,0-86.93q-.18-20-.68-39.94c-.39-16.23-.87-32.46-1.34-48.67-.35-11.92.27-24.86.1-37.5-.08-6-.34-12-1-17.71-.35-3.22-.81-6.36-1.43-9.41a9.26,9.26,0,0,0-.46-1.58l-.11-.26c-1-10.64-.56-21.46-.56-32.09,0-5.92.36-11.9.25-17.82-.11-5.24-2.62-8.19-5.61-11.92a26.29,26.29,0,0,1-5.26-12.3c-.95-5.17-1.89-11.43-5.49-15.54-5.23-6-19-2.2-26.3-2-9.92.25-19.85.27-29.77.48-2.44.05-4.88.21-7.3.49-8.09,1-8.81,7.79-8.56,14.68.27,7.52-2.2,12.57-6.18,18.33-1.4,2-1.58,5-1.41,8,.15,2.56.58,5.14.74,7.1C35.67,212.93,36.39,219,37,225.11Z"/><path class="cls-12" d="M57.43,488.85c-8-.36-16.1-.83-24.1-1.9a136.6,136.6,0,0,0,1.52,22.25l36.33,1.21c2.68.09,5.74.86,8.39.28,3.56-.77,3.08.26,3.89-5.8a134.1,134.1,0,0,0,1.15-15.38C75.56,489.44,66.49,489.25,57.43,488.85Z"/><path class="cls-12" d="M138.7,488.94l-4.77.1c-15,.26-30.06.53-45.09.49.06,4.35,0,8.7-.14,13-.22,7.48-.62,7.63,3.31,8.53,5.47,1.25,11.48.38,17,.57l28.87,1c1,0,1.15-7.73,1-16.14C138.84,494,138.77,491.39,138.7,488.94Z"/><polygon class="cls-12" points="72.57 262.21 81.25 293.87 81.25 262.21 72.57 262.21"/><path class="cls-12" d="M103.11,154.53c1.29-12.51.67-25,2.3-37.55.14-1.09.54-16.3,2.89-15.81,4.84,1,9.62,2.19,14.44,3.29,3.77.86.67,9.83.32,11.79-2.36,13.28-1.78,26.87-3.33,40.23-.62,5.31-.92,14.4-11.43,12.12-6.28-1.36-6.2-6.27-5.62-10.5Q102.92,156.31,103.11,154.53Z"/><path class="cls-12" d="M45,102.53c2.12-.52,4.28-.84,6.42-1.26l.46,0a17.56,17.56,0,0,0,4.93.2,6.78,6.78,0,0,1,1.93,4.13c1.91,19.42,4.79,38.81,4.94,58.31,0,3.52-4,6.89-8.55,6.73s-8.52-3-8.55-6.73c-.15-19.5-3-38.89-4.94-58.31a4.3,4.3,0,0,1,.45-2.3C43,103,44,102.77,45,102.53Z"/><path class="cls-13" d="M106.86,159.79a4,4,0,0,1,.93-1,3.41,3.41,0,0,1,4.51-1l.69.53a3.79,3.79,0,0,1,1,2.54,4.11,4.11,0,0,1-.12,1,3.85,3.85,0,0,1-1,1.72,4.83,4.83,0,0,1-2.22,1.2,3.55,3.55,0,0,1-2.64-.34,3.42,3.42,0,0,1-1.23-4.68Z"/><path class="cls-13" d="M55.09,159.61c4.4,0,4.41,6.84,0,6.84S50.68,159.61,55.09,159.61Z"/><path class="cls-12" d="M133.23,278.29l.35.05c-.08-6-.34-12-1-17.71a15.48,15.48,0,0,0-5.83-4.26c-3.58-1.53-6.83.3-7.29,4.18C118.53,268.67,125.34,276.89,133.23,278.29Z"/><path class="cls-12" d="M37.29,274.87c5.15-.6,9.53-5.23,12.48-9.07,1.61-2.09.3-5.44-1.74-6.63a4.55,4.55,0,0,0-1.73-.6,5,5,0,0,0-1.14-.46,20.77,20.77,0,0,0-7.64-1C37.41,263.09,37.27,269,37.29,274.87Z"/><path class="cls-13" d="M35.77,259.4h0q.2-.64.35-1.29v0c.1-.43.17-.87.23-1.32v0c.06-.45.1-.9.12-1.35s0-.67,0-1c0-.07,0-.14,0-.21,0-.33,0-.66-.09-1v0c0-.33-.11-.66-.18-1l0-.1c-.08-.34-.17-.67-.28-1l.12-.21c1.51-2.48,4.44-2.64,7-2.28,4.73.65,9.37,1.6,14.15,2s9.72.4,14.58.56a294.56,294.56,0,0,0,29.69-.63c5-.34,23.25-.44,26.78-2.22,2.36-1.19,3.8-.52,4.66,1a15.79,15.79,0,0,0-.66,3.87,12.54,12.54,0,0,0,1.72,6.84,3.41,3.41,0,0,1-3.29,2.61c-12.71-.13-25.62,2.39-38.37,2.84-18,.63-37.61,1.6-55.1-3.34a3.22,3.22,0,0,1-1.87-1.39h0Q35.57,260,35.77,259.4Z"/><path class="cls-4" d="M233.53,191.91a22.36,22.36,0,0,1,8.79-3.5c3.19-.47,6.41-.32,9.61-.48a4.39,4.39,0,0,1,4.28,2.74,11.8,11.8,0,0,1,4.74,1.85,5.17,5.17,0,0,1,1.81,6.41c.21.3.42.61.61.94a5,5,0,0,1-.34,5.35c1.57,3-.9,6.88-4.39,7-9.79.45-21.89-.06-26.24-10.46a4,4,0,0,1,0-2.63A4.87,4.87,0,0,1,233.53,191.91Z"/><path class="cls-12" d="M102.43,175.57l-47.34,2.28S75.48,217.18,102.43,175.57Z"/><path class="cls-4" d="M249.89,206.72a21.17,21.17,0,0,1,2.22-4.13,2.45,2.45,0,0,1,0-3.17,17.89,17.89,0,0,1,3.22-3c2.2-1.6,4.31,1.66,2.76,3.51a2.2,2.2,0,0,1-.24,2.84,19.87,19.87,0,0,0-1.78,2l.1,0a2.35,2.35,0,0,1,2.83,2.75,2.09,2.09,0,0,1,0,2.25c-1.56,2.73-4.56,3.06-7.41,2.67-1.67-.22-2-2.35-1.19-3.57A2.07,2.07,0,0,1,249.89,206.72Z"/><path class="cls-4" d="M240.54,194.38a29.38,29.38,0,0,1,9.56,2.68c2.1.93,5.82,2.78,6.18,5.35.49,3.43-4.68,4.17-7.07,4-3.83-.24-6.15-3.16-9.26-5a2.14,2.14,0,0,1-.76-3.07C237.73,197.17,238.16,194.21,240.54,194.38Z"/><path class="cls-4" d="M261.32,193.64c-3.89-4.44-8.54.35-8,4.47a6.3,6.3,0,0,0-1.44,4,5.2,5.2,0,0,0-1.44,2.3,5.54,5.54,0,0,0,3.54,7c2.91,1.16,4.5-2.38,3.17-4.57a3,3,0,0,0,.86-4.77l.24,0a2.9,2.9,0,0,0,2.13-3.47A3.19,3.19,0,0,0,261.32,193.64Z"/></g></g></svg>