<svg xmlns="http://www.w3.org/2000/svg" viewBox="0 0 385.73 520.65"><defs><style>.cls-1{fill:#fff;}.cls-2{fill:#700;}.cls-3{fill:#db0000;}</style></defs><title>Recurso 30</title><g id="Capa_2" data-name="Capa 2"><g id="Login_y_Signup" data-name="Login y Signup"><g id="Icono_de_carro" data-name="Icono de carro"><path class="cls-1" d="M308.42,144.79H211.83a4.39,4.39,0,0,1-4.33-3.67l-8.78-52.69A4.39,4.39,0,0,1,203,83.32H317.2a4.39,4.39,0,0,1,4.33,5.11l-8.78,52.69A4.39,4.39,0,0,1,308.42,144.79ZM215.55,136H304.7L312,92.1H208.23Z"/><path class="cls-1" d="M203,92.11a4.39,4.39,0,0,1-3.93-2.43l-7.57-15.14H172.31a4.39,4.39,0,0,1,0-8.78h22a4.39,4.39,0,0,1,3.93,2.43L207,85.75A4.39,4.39,0,0,1,203,92.11Z"/><path class="cls-1" d="M308.42,162.35H211.83a4.39,4.39,0,0,1-4.39-4.39V140.4a4.39,4.39,0,0,1,8.78,0v13.17h92.2a4.39,4.39,0,0,1,0,8.78Z"/><circle class="cls-1" cx="225" cy="175.53" r="8.78"/><circle class="cls-1" cx="295.25" cy="175.53" r="8.78"/></g><path class="cls-2" d="M385.73,18.76A18.76,18.76,0,0,0,367,0H257.5V53.14h92A18.75,18.75,0,0,1,368.27,71.9V175a18.76,18.76,0,0,1-18.75,18.76h-92V520.65H385.73Z"/><path class="cls-3" d="M162.18,193.8A18.76,18.76,0,0,1,143.42,175V71.9a18.76,18.76,0,0,1,18.76-18.76H257.5V0H144.72A18.76,18.76,0,0,0,126,18.76V284.27H111.61v19.94H94.13v70.64a35.43,35.43,0,1,1-70.87,0V170.34A4.36,4.36,0,0,0,25,166.82l-.06-3.2,17.39-.31a4.46,4.46,0,0,0,4.37-4.53L46.08,123l0-19.78-2.28-1.43,1.41-2.07a2.3,2.3,0,0,0-.6-3.19l-2-1.34,5.83-9.56L71.94,72.44l-4.37-7.76L43.13,78.42A4.46,4.46,0,0,0,41.51,80L35.31,90.16l-1.25-.85a2.3,2.3,0,0,0-3.19.6l-1.8,2.63-2.61-1.64L6,101.78,0,115.65l5.52,8.07.63,35.78a4.39,4.39,0,0,0,3.72,4.23l.06,3.36a4.42,4.42,0,0,0,1.45,3.18V374.85a47.31,47.31,0,1,0,94.63,0V316.09h5.61V336H126V520.65H257.5V193.8ZM20.09,156.92l-.46-26.18a2.34,2.34,0,0,1,2.29-2.38l15.5-.27a2.33,2.33,0,0,1,2.38,2.29l.46,26.18A2.33,2.33,0,0,1,38,158.94l-15.5.27A2.33,2.33,0,0,1,20.09,156.92Z"/></g></g></svg>